<?xml version="1.0" encoding="utf-8"?>
<!-- Generator: Adobe Illustrator 16.0.3, SVG Export Plug-In . SVG Version: 6.00 Build 0)  -->
<!DOCTYPE svg PUBLIC "-//W3C//DTD SVG 1.1//EN" "http://www.w3.org/Graphics/SVG/1.1/DTD/svg11.dtd">
<svg version="1.1" id="Layer_1" xmlns="http://www.w3.org/2000/svg" xmlns:xlink="http://www.w3.org/1999/xlink" x="0px" y="0px"
	 width="9.669px" height="9.67px" viewBox="0 0 9.669 9.67" enable-background="new 0 0 9.669 9.67" xml:space="preserve">
<path display="none" fill="#ABABAB" d="M7.385,5.83c0.31-0.563,0.502-1.199,0.502-1.886C7.887,1.769,6.118,0,3.943,0
	S0,1.769,0,3.944s1.769,3.943,3.943,3.943c0.687,0,1.323-0.191,1.887-0.502L8.114,9.67l1.555-1.557L7.385,5.83z M3.943,5.688
	c-0.962,0-1.744-0.782-1.744-1.744S2.981,2.2,3.943,2.2s1.744,0.782,1.744,1.744S4.905,5.688,3.943,5.688z"/>
<polygon fill="#ABABAB" points="9.508,1.717 7.953,0.162 4.834,3.28 1.717,0.162 0.161,1.717 3.279,4.834 0.16,7.953 1.716,9.509 
	4.835,6.39 7.953,9.508 9.508,7.954 6.39,4.835 "/>
</svg>
